<svg id="Layer_1" enable-background="new 0 0 511.572 511.572" height="512" viewBox="0 0 511.572 511.572" width="512" xmlns="http://www.w3.org/2000/svg"><g><path d="m310.533 360.322 190.207-89.717c.025-1.563.051-3.126.047-4.696-.366-135.31-110.353-244.704-245.663-244.338-115.359.312-211.864 80.31-237.592 187.74z" fill="#4e5fc6"/><path d="m140.278 167.226c1.59.237 3.352.483 5.247.725.58.074.892.73.574 1.22-1.537 2.363-3.164 4.697-4.88 6.99 8.008.058 16.346.465 25.026 1.269 16.247 1.506 31.333 4.621 45.585 8.855-.04-.045-.072-.094-.115-.139-5.132-5.354-9.618-11.146-13.546-17.115-.321-.489-.013-1.146.567-1.223 1.924-.257 3.709-.517 5.319-.765 3.574-.552 5.096-4.909 2.594-7.519-4.862-5.073-9.062-10.596-12.694-16.279-.312-.488-.002-1.136.572-1.214 1.419-.192 2.743-.386 3.946-.571 2.956-.456 4.216-4.061 2.146-6.221-5.056-5.275-9.248-11.137-12.724-17.112-.286-.492.033-1.115.597-1.185 1.801-.226 3.454-.462 4.893-.685 2.394-.369 3.414-3.288 1.738-5.037-3.931-4.102-7.215-8.641-9.962-13.279-.289-.489.024-1.117.587-1.189 1.454-.185 2.785-.376 3.943-.556 1.927-.3 2.711-2.639 1.358-4.045-3.564-3.703-6.479-7.844-8.873-12.052-.279-.491.041-1.11.602-1.176 1.774-.208 3.382-.435 4.71-.643 1.613-.253 2.276-2.213 1.14-3.386-9.597-9.903-13.91-23.459-15.7-31.229-.276-1.198-1.976-1.194-2.246.006-1.748 7.779-5.987 21.359-15.531 31.314-1.13 1.179-.456 3.135 1.158 3.379 1.33.201 2.939.419 4.714.618.561.063.884.68.608 1.173-2.372 4.221-5.264 8.378-8.807 12.1-1.345 1.413-.55 3.748 1.38 4.037 1.158.174 2.489.358 3.943.535.564.069.88.695.593 1.186-2.714 4.639-5.963 9.184-9.857 13.298-1.679 1.774-.637 4.711 1.779 5.07 1.428.212 3.063.436 4.844.65.564.067.887.689.604 1.182-3.434 5.977-7.581 11.846-12.591 17.138-2.074 2.19-.786 5.817 2.197 6.26 1.187.176 2.49.359 3.885.541.574.074.887.72.578 1.21-3.588 5.683-7.742 11.211-12.556 16.296-2.508 2.648-.952 7.032 2.655 7.568z" fill="#50dd89"/><g><path d="m141.217 176.162c6.609.048 13.455.349 20.52.899 1.598-2.528 3.097-5.092 4.493-7.681.278-.515-.087-1.143-.672-1.169-1.939-.088-3.74-.192-5.365-.299-3.608-.239-5.505-4.446-3.239-7.264 4.402-5.478 8.104-11.346 11.227-17.324.268-.514-.097-1.132-.676-1.159-1.43-.068-2.767-.145-3.981-.225-2.985-.197-4.554-3.678-2.68-6.01 4.577-5.696 8.242-11.901 11.184-18.156.242-.515-.13-1.107-.699-1.129-1.814-.068-3.48-.159-4.934-.255-2.417-.159-3.688-2.978-2.17-4.866 3.558-4.428 6.434-9.237 8.767-14.097.246-.512-.121-1.111-.688-1.133-1.464-.057-2.807-.132-3.976-.211-1.946-.131-2.93-2.393-1.705-3.911 3.228-3.999 5.77-8.379 7.789-12.779.235-.513-.137-1.103-.702-1.119-1.785-.053-3.407-.138-4.748-.23-1.629-.112-2.46-2.006-1.43-3.273 4.544-5.591 7.554-12.044 9.56-18.064-2.053-4.94-3.362-9.569-4.162-13.041-.276-1.198-1.976-1.194-2.246.006-1.748 7.779-5.987 21.359-15.531 31.314-1.13 1.179-.456 3.135 1.158 3.379 1.33.201 2.939.419 4.714.618.561.063.884.68.608 1.173-2.372 4.221-5.264 8.378-8.807 12.1-1.345 1.413-.55 3.748 1.38 4.037 1.158.174 2.489.358 3.943.535.564.069.88.695.593 1.186-2.714 4.639-5.963 9.184-9.857 13.298-1.679 1.774-.637 4.711 1.779 5.07 1.428.212 3.063.436 4.844.65.564.067.887.689.604 1.182-3.434 5.977-7.581 11.846-12.591 17.137-2.074 2.19-.786 5.817 2.197 6.26 1.187.176 2.491.359 3.885.541.575.074.887.72.578 1.21-3.588 5.683-7.742 11.211-12.556 16.296-2.507 2.648-.951 7.031 2.656 7.567 1.591.236 3.352.483 5.247.725.58.074.892.73.574 1.22-1.541 2.364-3.168 4.699-4.885 6.992z" fill="#2cc66a"/></g><path d="m394.339 260.865c1.354.202 2.855.412 4.469.618.494.064.76.621.488 1.039-1.778 2.734-3.705 5.42-5.769 8.035 19.158 5.438 39.701 8.484 62.53 7.776-.197-.479-.479-.939-.875-1.352-4.371-4.56-8.192-9.493-11.537-14.578-.274-.416-.011-.976.483-1.042 1.639-.219 3.159-.44 4.53-.652 3.044-.47 4.341-4.181 2.209-6.404-4.141-4.321-7.718-9.025-10.811-13.865-.266-.416-.002-.968.487-1.034 1.208-.164 2.337-.329 3.361-.487 2.518-.389 3.59-3.458 1.828-5.298-4.306-4.493-7.877-9.486-10.837-14.574-.244-.419.028-.949.509-1.01 1.534-.193 2.941-.393 4.168-.583 2.039-.314 2.908-2.801 1.48-4.29-3.348-3.493-6.145-7.36-8.485-11.31-.246-.416.02-.951.5-1.012 1.238-.157 2.372-.321 3.358-.474 1.642-.255 2.309-2.248 1.157-3.445-3.036-3.154-5.518-6.681-7.557-10.264-.238-.418.035-.946.512-1.002 1.511-.178 2.88-.37 4.012-.548 1.374-.215 1.938-1.885.971-2.883-8.174-8.434-11.847-19.981-13.372-26.598-.235-1.02-1.683-1.017-1.913.005-1.489 6.626-5.099 18.191-13.228 26.67-.962 1.004-.389 2.67.986 2.878 1.133.171 2.503.357 4.015.526.478.054.754.58.518.999-2.02 3.595-4.483 7.135-7.501 10.306-1.146 1.204-.468 3.192 1.175 3.439.986.148 2.12.305 3.358.456.48.058.75.592.505 1.01-2.312 3.951-5.079 7.822-8.396 11.326-1.43 1.511-.542 4.012 1.515 4.318 1.216.181 2.609.372 4.125.554.481.057.755.587.514 1.007-2.925 5.091-6.457 10.09-10.724 14.597-1.766 1.866-.67 4.955 1.871 5.332 1.011.15 2.121.306 3.309.461.49.063.756.613.492 1.031-3.056 4.84-6.594 9.548-10.694 13.88-2.133 2.252-.808 5.985 2.264 6.442z" fill="#50dd89"/><path d="m393.527 270.557c6.715 1.906 13.605 3.51 20.699 4.77 1.774-2.717 3.416-5.488 4.91-8.294.234-.44-.079-.972-.577-.992-1.626-.065-3.139-.143-4.505-.226-3.1-.187-4.746-3.791-2.815-6.223 3.707-4.672 6.821-9.671 9.444-14.759.226-.439-.087-.964-.58-.984-1.197-.051-2.317-.109-3.337-.171-2.564-.155-3.926-3.136-2.329-5.149 3.858-4.861 6.94-10.149 9.411-15.476.204-.439-.116-.942-.6-.958-1.527-.049-2.931-.118-4.158-.192-2.077-.125-3.179-2.54-1.886-4.17 2.999-3.779 5.418-7.877 7.377-12.014.207-.437-.108-.945-.592-.962-1.246-.042-2.39-.1-3.385-.161-1.658-.102-2.507-2.024-1.471-3.323 2.73-3.421 4.876-7.163 6.575-10.92.198-.438-.122-.938-.603-.95-1.521-.037-2.902-.102-4.045-.174-1.388-.087-2.104-1.697-1.233-2.781 3.781-4.704 6.296-10.113 7.977-15.177-3.016-5.831-4.734-11.639-5.656-15.643-.235-1.02-1.683-1.017-1.913.005-1.489 6.626-5.099 18.191-13.228 26.67-.962 1.004-.388 2.67.986 2.878 1.133.171 2.503.357 4.015.526.478.054.754.58.518.999-2.02 3.595-4.483 7.135-7.501 10.306-1.146 1.204-.468 3.192 1.176 3.439.986.148 2.12.305 3.358.455.48.059.75.592.506 1.01-2.312 3.952-5.079 7.822-8.396 11.326-1.43 1.511-.542 4.012 1.515 4.318 1.216.181 2.609.372 4.125.554.481.057.755.587.514 1.007-2.925 5.091-6.457 10.09-10.724 14.597-1.766 1.866-.67 4.954 1.871 5.332 1.01.15 2.121.306 3.309.461.49.063.756.613.492 1.031-3.056 4.84-6.594 9.548-10.694 13.88-2.135 2.255-.81 5.989 2.262 6.445 1.354.202 2.855.412 4.469.618.494.064.76.621.488 1.039-1.778 2.732-3.706 5.418-5.769 8.033z" fill="#2cc66a"/><path d="m50.594 193.141c23.998-10.184 54.413-17.431 92.109-16.956-4.325-5.063-8.256-10.357-11.818-15.77-.408-.62-.016-1.456.721-1.554 2.444-.326 4.713-.656 6.757-.972 4.54-.702 6.475-6.237 3.296-9.554-6.178-6.445-11.513-13.463-16.127-20.682-.396-.62-.003-1.443.727-1.542 1.803-.244 3.485-.49 5.014-.726 3.756-.58 5.356-5.159 2.726-7.903-6.424-6.702-11.75-14.15-16.166-21.741-.363-.625.042-1.416.759-1.506 2.288-.287 4.388-.587 6.217-.869 3.042-.47 4.338-4.178 2.208-6.399-4.995-5.211-9.167-10.979-12.657-16.871-.368-.621.03-1.419.746-1.51 1.847-.235 3.538-.478 5.009-.707 2.449-.381 3.444-3.354 1.725-5.139-4.528-4.704-8.231-9.966-11.273-15.311-.355-.623.051-1.41.764-1.494 2.254-.265 4.297-.553 5.985-.817 2.049-.322 2.892-2.811 1.448-4.301-12.193-12.582-17.673-29.805-19.947-39.677-.351-1.523-2.511-1.517-2.853.007-2.221 9.885-7.607 27.136-19.732 39.785-1.435 1.498-.579 3.982 1.471 4.292 1.69.255 3.733.532 5.989.785.713.08 1.124.865.772 1.49-3.013 5.362-6.687 10.644-11.19 15.373-1.709 1.795-.698 4.761 1.753 5.129 1.471.221 3.163.455 5.009.679.716.087 1.118.883.754 1.506-3.448 5.894-7.576 11.669-12.524 16.895-2.134 2.254-.809 5.985 2.26 6.441 1.814.27 3.892.555 6.154.826.718.086 1.127.875.767 1.501-4.363 7.594-9.632 15.051-15.997 21.773-2.634 2.783-.999 7.391 2.792 7.954 1.507.224 3.164.457 4.936.688.73.095 1.128.915.735 1.538-4.559 7.22-9.837 14.243-15.953 20.705-3.185 3.364-1.208 8.933 3.374 9.614 2.021.301 4.258.614 6.666.922.737.094 1.133.927.729 1.55-4.931 7.582-10.567 14.947-17.02 21.764-3.41 3.601-1.649 9.41 2.885 10.784z" fill="#50dd89"/><g><path d="m92.117 161.159c.349-.656-.118-1.451-.861-1.48-2.425-.097-4.682-.214-6.721-.338-4.624-.279-7.079-5.655-4.199-9.283 5.53-6.97 10.175-14.426 14.088-22.016.337-.654-.13-1.437-.866-1.468-1.785-.076-3.456-.163-4.977-.255-3.825-.231-5.856-4.678-3.474-7.68 5.754-7.252 10.354-15.139 14.038-23.085.304-.655-.173-1.406-.895-1.429-2.277-.074-4.371-.176-6.202-.287-3.098-.187-4.742-3.788-2.813-6.22 4.473-5.638 8.082-11.75 11.004-17.922.309-.652-.161-1.41-.882-1.435-1.859-.063-3.565-.149-5.049-.24-2.474-.153-3.739-3.02-2.194-4.957 4.073-5.103 7.273-10.685 9.807-16.289.296-.654-.182-1.4-.899-1.417-2.269-.055-4.329-.153-6.034-.26-2.07-.13-3.139-2.531-1.84-4.148 5.417-6.74 9.096-14.452 11.601-21.744-2.98-6.834-4.834-13.307-5.93-18.067-.351-1.523-2.511-1.517-2.853.007-2.221 9.884-7.606 27.136-19.732 39.785-1.435 1.498-.58 3.982 1.471 4.292 1.69.255 3.733.532 5.989.785.713.08 1.124.865.772 1.49-3.013 5.362-6.687 10.644-11.19 15.373-1.709 1.795-.698 4.761 1.753 5.129 1.471.221 3.163.455 5.009.679.716.087 1.118.883.754 1.506-3.448 5.894-7.576 11.669-12.524 16.895-2.134 2.254-.809 5.985 2.26 6.441 1.814.27 3.892.555 6.154.826.718.086 1.127.875.767 1.501-4.363 7.594-9.632 15.051-15.997 21.773-2.634 2.783-.999 7.391 2.792 7.954 1.507.224 3.164.457 4.936.688.73.095 1.128.915.735 1.538-4.559 7.22-9.837 14.243-15.953 20.705-3.185 3.364-1.208 8.933 3.374 9.614 2.021.301 4.258.614 6.666.922.737.094 1.133.927.729 1.55-4.931 7.582-10.567 14.947-17.02 21.764-3.41 3.602-1.649 9.411 2.885 10.785 8.152-3.459 17.063-6.567 26.729-9.161 5.717-7.254 10.607-14.96 14.792-22.821z" fill="#2cc66a"/></g><path d="m166.238 175.534c-70.477-6.531-118.545 13.063-148.707 33.778-4.449 18.579-6.799 37.972-6.745 57.922.119 43.883 11.783 85.031 32.087 120.601l69.752 42.197c81.46-21.107 136.698-86.558 232.764-95.985 61.903-6.074 106.607 8.122 137.082 25.599 11.316-27.529 17.761-57.565 18.268-89.042-148.053 33.167-203.806-82.958-334.501-95.07z" fill="#e9efff"/><path d="m227.82 189.706c-18.88-6.938-39.125-12.09-61.582-14.172-70.477-6.531-118.545 13.063-148.707 33.778-4.449 18.579-6.799 37.972-6.745 57.922.119 43.883 11.783 85.031 32.087 120.601l69.752 42.197c42.108-10.91 77.21-33.669 114.566-54.415-1.134-.577-1.826-.875-1.826-.875s39.5-48.42-23.963-96.308c-53.012-40.002 5.658-77.472 26.418-88.728z" fill="#d3dcfb"/><path d="m129.312 425.014c-5.598-6.12-10.567-12.645-14.978-19.348-.408-.62-.016-1.452.719-1.55 2.438-.325 4.701-.655 6.741-.97 4.53-.7 6.459-6.221 3.288-9.531-6.163-6.43-11.486-13.43-16.089-20.633-.395-.619-.002-1.44.725-1.538 1.798-.244 3.477-.489 5.002-.724 3.747-.579 5.343-5.147 2.72-7.884-6.408-6.687-11.722-14.116-16.127-21.689-.362-.623.042-1.412.757-1.502 2.283-.286 4.377-.585 6.202-.867 3.034-.468 4.327-4.168 2.202-6.384-4.982-5.198-9.145-10.952-12.626-16.83-.367-.62.03-1.416.744-1.507 1.843-.234 3.53-.477 4.997-.705 2.443-.38 3.435-3.345 1.721-5.127-4.517-4.693-8.211-9.942-11.246-15.275-.354-.622.051-1.407.763-1.491 2.248-.264 4.286-.551 5.97-.815 2.044-.321 2.885-2.805 1.445-4.291-12.164-12.551-17.63-29.733-19.899-39.581-.35-1.519-2.505-1.513-2.847.007-2.216 9.86-7.588 27.071-19.684 39.689-1.432 1.494-.578 3.973 1.468 4.282 1.685.255 3.725.531 5.974.783.711.079 1.121.862.77 1.486-3.006 5.349-6.671 10.619-11.163 15.336-1.705 1.791-.696 4.75 1.749 5.117 1.468.22 3.155.454 4.997.678.714.087 1.116.881.752 1.502-3.44 5.88-7.558 11.641-12.494 16.854-2.128 2.248-.807 5.971 2.255 6.426 1.81.269 3.882.553 6.139.824.716.086 1.124.873.765 1.498-4.353 7.576-9.609 15.015-15.958 21.721-2.628 2.776-.997 7.373 2.785 7.935 1.504.223 3.156.455 4.924.685.728.095 1.125.914.733 1.534-3.181 5.038-6.723 9.976-10.647 14.697 9.97 17.469 22.019 33.596 35.823 48.033 18.128-1.532 34.821-5.421 50.628-10.845z" fill="#50dd89"/><g><path d="m42.863 387.829c6.67 11.687 14.29 22.756 22.724 33.137 3.314-4.806 6.314-9.753 9.019-14.767.352-.653-.11-1.448-.851-1.482-2.457-.111-4.74-.243-6.8-.378-4.573-.302-6.977-5.635-4.106-9.208 5.579-6.943 10.271-14.38 14.229-21.957.34-.651-.123-1.434-.857-1.469-1.813-.086-3.506-.184-5.046-.285-3.783-.25-5.771-4.662-3.397-7.617 5.801-7.22 10.447-15.084 14.175-23.012.307-.652-.165-1.403-.885-1.431-2.299-.086-4.412-.202-6.254-.323-3.063-.202-4.674-3.775-2.751-6.168 4.511-5.613 8.155-11.708 11.111-17.867.312-.649-.153-1.408-.873-1.436-1.856-.073-3.558-.167-5.04-.267-2.467-.165-3.714-3.033-2.161-4.957 4.091-5.069 7.313-10.62 9.872-16.197.299-.651-.174-1.397-.889-1.419-2.263-.067-4.318-.175-6.019-.291-2.065-.141-3.118-2.542-1.813-4.149 5.522-6.794 9.267-14.598 11.808-21.955-2.855-6.645-4.648-12.919-5.717-17.559-.35-1.519-2.505-1.513-2.847.007-2.216 9.86-7.588 27.071-19.684 39.689-1.432 1.494-.578 3.973 1.468 4.282 1.685.255 3.725.531 5.974.783.711.079 1.121.862.77 1.486-3.006 5.349-6.671 10.619-11.163 15.336-1.705 1.791-.696 4.75 1.749 5.117 1.468.22 3.155.454 4.997.678.714.087 1.116.881.752 1.502-3.44 5.88-7.558 11.641-12.494 16.854-2.128 2.248-.807 5.971 2.255 6.426 1.81.269 3.882.553 6.139.824.716.086 1.124.873.765 1.498-4.353 7.576-9.609 15.015-15.958 21.721-2.628 2.776-.997 7.373 2.785 7.935 1.504.223 3.156.455 4.924.685.728.095 1.125.914.733 1.534-3.179 5.041-6.72 9.979-10.644 14.7z" fill="#2cc66a"/></g><path d="m452.678 412.352c12.31-16.599 22.58-34.801 30.418-54.245-30.488-17.641-75.386-32.072-137.712-25.957-109.391 10.735-165.834 94.127-268.347 101.95 22.597 24.1 50.006 43.623 80.694 57.042 16.591-5.192 33.207-11.216 49.303-18.208 74.759-32.475 121.913-20.184 173.448 3.863z" fill="#d3dcfb"/><path d="m207.034 472.935c8.839-3.84 17.289-7.046 25.409-9.689 1.454-1.74 2.801-2.796 2.801-2.796s-26.305-11.054 2.268-39.627-12.147-46.08-12.147-46.08c-46.68 26.055-90.064 54.911-148.329 59.358 22.597 24.1 50.006 43.623 80.694 57.042 16.591-5.192 33.207-11.216 49.304-18.208z" fill="#bec8f7"/><path d="m443.937 396.36c2.414-.303 4.629-.619 6.559-.917 3.209-.495 4.576-4.408 2.329-6.751-5.269-5.498-9.671-11.582-13.352-17.798-.388-.655.032-1.497.787-1.593 1.948-.248 3.733-.504 5.284-.746 2.583-.402 3.633-3.538 1.82-5.422-4.777-4.963-8.683-10.514-11.892-16.153-.374-.658.054-1.488.806-1.576 2.378-.28 4.533-.583 6.314-.862 2.162-.339 3.051-2.966 1.528-4.538-12.864-13.273-18.644-31.443-21.043-41.858-.37-1.606-2.649-1.6-3.01.008-2.343 10.427-8.025 28.628-20.816 41.971-1.514 1.58-.611 4.201 1.552 4.529 1.782.269 3.939.561 6.318.828.752.084 1.186.912.815 1.572-3.179 5.657-7.055 11.229-11.805 16.218-1.803 1.894-.736 5.023 1.85 5.411 1.552.233 3.336.48 5.284.717.756.092 1.18.932.795 1.589-3.638 6.218-7.993 12.31-13.212 17.824-2.251 2.378-.854 6.314 2.384 6.795 1.914.285 4.106.585 6.492.871.757.091 1.189.923.809 1.584-4.603 8.012-10.161 15.878-16.876 22.97-2.779 2.936-1.054 7.797 2.945 8.391 1.59.236 3.338.482 5.207.725.77.1 1.19.966.775 1.622-4.81 7.617-10.377 15.026-16.83 21.842-3.36 3.549-1.274 9.424 3.56 10.143 2.132.317 4.493.647 7.032.973.777.1 1.196.978.768 1.635-2.763 4.249-5.744 8.43-8.945 12.498 29.214-16.878 54.612-39.612 74.6-66.592-3.596-4.623-6.796-9.443-9.634-14.321-.382-.659.046-1.494.802-1.589z" fill="#50dd89"/><path d="m378.169 478.862c8.872-5.125 17.385-10.799 25.509-16.959-.03-1.311.368-2.658 1.299-3.831 5.834-7.353 10.734-15.219 14.862-23.226.356-.69-.137-1.516-.913-1.549-1.883-.08-3.646-.171-5.25-.268-4.035-.243-6.178-4.935-3.665-8.102 6.071-7.65 10.922-15.971 14.81-24.354.321-.691-.182-1.483-.944-1.508-2.402-.077-4.612-.185-6.543-.302-3.268-.198-5.003-3.997-2.968-6.562 4.719-5.948 8.526-12.396 11.608-18.907.326-.688-.17-1.488-.931-1.514-1.961-.066-3.76-.157-5.327-.254-2.61-.161-3.945-3.186-2.314-5.229 4.297-5.384 7.673-11.272 10.346-17.185.312-.69-.192-1.477-.949-1.495-2.393-.058-4.567-.161-6.366-.274-2.184-.138-3.312-2.67-1.941-4.376 5.682-7.069 9.549-15.151 12.19-22.804-3.952-8.279-6.292-16.313-7.606-22.018-.37-1.606-2.649-1.6-3.01.008-2.343 10.427-8.025 28.628-20.816 41.971-1.514 1.58-.611 4.201 1.552 4.529 1.782.269 3.939.561 6.318.828.752.084 1.186.912.815 1.572-3.179 5.657-7.055 11.229-11.805 16.218-1.803 1.894-.736 5.023 1.85 5.411 1.552.233 3.336.48 5.284.717.756.092 1.18.932.795 1.589-3.638 6.218-7.993 12.31-13.212 17.824-2.251 2.378-.854 6.314 2.384 6.795 1.914.285 4.106.585 6.492.871.757.091 1.189.923.809 1.584-4.603 8.012-10.161 15.878-16.876 22.97-2.779 2.936-1.054 7.797 2.945 8.391 1.59.236 3.338.482 5.207.725.77.1 1.19.966.775 1.622-4.81 7.617-10.377 15.026-16.83 21.842-3.36 3.549-1.274 9.424 3.56 10.143 2.132.317 4.493.647 7.032.973.777.1 1.196.978.768 1.635-2.762 4.251-5.743 8.432-8.944 12.499z" fill="#2cc66a"/><path d="m389.735 462.734c-8.739-9.118-16.379-18.981-23.067-29.146-.547-.832-.021-1.951.966-2.083 3.276-.437 6.317-.88 9.057-1.303 6.086-.94 8.678-8.359 4.417-12.805-8.28-8.639-15.432-18.044-21.616-27.721-.531-.832-.004-1.934.974-2.067 2.416-.327 4.672-.657 6.72-.973 5.034-.777 7.179-6.915 3.654-10.593-8.61-8.983-15.749-18.966-21.668-29.14-.487-.837.057-1.898 1.018-2.018 3.067-.385 5.881-.786 8.333-1.165 4.077-.629 5.814-5.6 2.959-8.577-6.694-6.985-12.286-14.715-16.964-22.613-.493-.832.04-1.902 1-2.024 2.475-.315 4.743-.641 6.714-.947 3.282-.511 4.616-4.495 2.312-6.888-6.069-6.306-11.032-13.358-15.109-20.523-.476-.836.069-1.891 1.024-2.003 3.021-.355 5.759-.741 8.021-1.095 2.747-.431 3.876-3.768 1.941-5.765-16.343-16.864-23.687-39.949-26.735-53.18-.47-2.04-3.366-2.033-3.825.01-2.977 13.248-10.195 36.371-26.447 53.324-1.924 2.007-.777 5.338 1.972 5.754 2.264.342 5.004.713 8.027 1.052.955.107 1.506 1.159 1.035 1.997-4.039 7.187-8.963 14.266-14.998 20.605-2.291 2.406-.936 6.382 2.35 6.875 1.972.296 4.239.609 6.714.911.96.117 1.499 1.184 1.011 2.019-4.622 7.901-10.155 15.64-16.786 22.645-2.86 3.021-1.085 8.022 3.03 8.633 2.432.362 5.216.743 8.248 1.107.961.115 1.51 1.173 1.028 2.013-5.848 10.178-12.91 20.173-21.441 29.183-3.531 3.73-1.339 9.906 3.741 10.661 2.021.3 4.241.612 6.616.921.979.127 1.512 1.227.985 2.061-6.111 9.677-13.184 19.091-21.382 27.751-4.269 4.509-1.619 11.974 4.522 12.887 2.708.403 5.708.823 8.935 1.236.988.126 1.519 1.242.976 2.077-6.609 10.163-14.163 20.033-22.813 29.171-4.886 5.161-1.854 13.707 5.177 14.751 15.367 2.284 38.851 5.052 62.103 4.989 15.711-.043 31.512-1.379 44.852-2.971 8.364-4.284 16.442-9.041 24.214-14.223-.395-.998-.975-1.955-1.795-2.81z" fill="#50dd89"/><path d="m268.086 430.512c2.708.403 5.708.823 8.935 1.236.988.126 1.519 1.242.976 2.077-6.002 9.23-12.794 18.213-20.469 26.63h42.167c6.044-8.226 11.355-16.817 16.007-25.554.468-.879-.159-1.945-1.154-1.984-3.25-.13-6.275-.287-9.008-.452-6.198-.374-9.488-7.58-5.629-12.443 7.412-9.342 13.638-19.336 18.882-29.509.452-.877-.174-1.926-1.16-1.968-2.393-.101-4.632-.218-6.671-.341-5.127-.309-7.849-6.27-4.656-10.294 7.713-9.72 13.877-20.292 18.816-30.941.407-.879-.232-1.884-1.2-1.915-3.052-.098-5.859-.236-8.313-.384-4.152-.251-6.356-5.078-3.771-8.337 5.995-7.556 10.833-15.749 14.749-24.022.414-.874-.216-1.89-1.183-1.923-2.492-.084-4.778-.199-6.768-.322-3.316-.205-5.012-4.047-2.94-6.644 5.459-6.84 9.748-14.322 13.145-21.833.396-.876-.244-1.876-1.205-1.899-3.041-.074-5.802-.205-8.088-.348-2.775-.175-4.207-3.393-2.466-5.56 6.989-8.696 11.823-18.601 15.17-28.047-4.367-9.679-7.02-18.922-8.566-25.63-.47-2.04-3.366-2.033-3.825.01-2.977 13.248-10.195 36.371-26.447 53.324-1.924 2.007-.777 5.338 1.972 5.754 2.264.342 5.004.713 8.027 1.052.955.107 1.506 1.159 1.035 1.997-4.039 7.187-8.963 14.266-14.998 20.605-2.291 2.406-.936 6.382 2.35 6.875 1.972.296 4.239.609 6.714.911.96.117 1.499 1.184 1.011 2.019-4.622 7.901-10.155 15.64-16.786 22.645-2.86 3.021-1.085 8.022 3.03 8.633 2.432.362 5.216.743 8.248 1.107.961.115 1.51 1.173 1.028 2.013-5.848 10.178-12.91 20.173-21.441 29.183-3.531 3.73-1.339 9.906 3.741 10.661 2.021.3 4.241.612 6.616.921.979.127 1.512 1.227.985 2.061-6.111 9.677-13.184 19.091-21.382 27.751-4.269 4.508-1.619 11.972 4.522 12.885z" fill="#2cc66a"/><path d="m382.915 476.044c-52.495-24.793-99.949-37.992-175.886-5.006-16.916 7.348-34.406 13.624-51.839 18.991 30.886 13.927 65.171 21.641 101.259 21.543 46.313-.126 89.587-13.098 126.466-35.528z" fill="#e9efff"/><path d="m269.052 491.143c-61.517-8.628-34.154-30.42-33.816-30.687-8.973 2.801-18.348 6.299-28.208 10.582-16.916 7.348-34.406 13.624-51.839 18.991 30.886 13.927 65.171 21.641 101.259 21.543 12.883-.035 25.53-1.067 37.87-3.017 3.919-6.99-.242-13.903-25.266-17.412z" fill="#d3dcfb"/><circle cx="271.47" cy="154.944" fill="#8199ef" r="8.237"/><circle cx="342.397" cy="187.812" fill="#e9efff" r="15.197"/><circle cx="322.161" cy="123.193" fill="#e9efff" r="8.237"/><path d="m363.866 114.957c24.784 33.623 61.397 32.161 85.408 1.328-44.966-57.807-115.247-94.926-194.15-94.713-18.462.05-36.438 2.15-53.721 6.068 1.206 21.983 8.261 70.783 46.979 75.968 50.151 6.714 85.484-29.35 115.484 11.349z" fill="#6279dd"/></g></svg>